<svg width="196" height="48" viewBox="0 0 196 48" fill="none" xmlns="http://www.w3.org/2000/svg">
<g clip-path="url(#clip0)">
<path d="M47.4823 3.0241C47.4823 1.04063 46.3246 0.0488907 44.34 0.0488907C36.5668 0.0488907 28.7936 -0.116399 21.1858 0.21418C10.9318 0.710048 2.00096 8.80922 0.347089 18.7266C-0.149072 22.0324 0.181702 25.3381 0.0163152 28.6439C-0.149072 31.4539 1.17402 32.6109 3.9856 32.4456H13.7434C13.7434 34.9249 13.7434 36.7431 13.7434 38.7266C13.7434 48.9745 12.7511 47.4869 22.8397 47.9828C26.6436 48.1481 30.1167 47.3216 33.2591 45.834V40.0489C29.1244 42.5282 24.1628 43.52 19.0358 42.3629V32.4456H31.6052V27.4869H18.705C18.3743 21.0406 19.8627 17.4043 25.4859 17.7348H33.4245V13.1067C23.3359 12.115 13.7434 11.6191 13.7434 27.1563L5.3087 27.4869C3.65483 18.7266 6.96256 11.9497 13.7434 7.98277C16.0588 6.66046 18.3743 5.83401 21.0204 5.50344C28.1321 4.67699 35.0783 5.33815 42.6861 5.00757C42.5207 12.6109 43.5131 19.8836 42.19 26.8258C41.363 31.2886 39.213 34.9249 36.236 37.7348V44.1811C42.5207 40.0489 46.6554 33.1067 47.4823 26.8258C48.1439 18.8919 47.317 10.958 47.4823 3.0241Z" fill="#252B48"/>
<path d="M77.0868 11.124H63.3597V19.2231H76.5907V24.0165H63.3597V35.4215H77.0868V40.2149H58.2327V6.33057H77.0868V11.124Z" fill="#252B48"/>
<path d="M85.687 18.8926L91.3101 30.9587L96.7679 18.8926H102.391L91.3101 41.8678L80.2292 18.8926H85.687Z" fill="#252B48"/>
<path d="M124.718 30.7934H109.337C109.503 32.6116 109.999 33.9339 110.991 34.9257C111.983 35.9174 113.307 36.4133 114.96 36.4133C116.118 36.4133 117.276 36.0827 118.103 35.5868C118.93 34.9257 119.757 33.9339 120.749 32.281L124.884 34.5951C124.222 35.7521 123.561 36.5786 122.899 37.405C122.237 38.2314 121.411 38.8926 120.584 39.3885C119.757 39.8843 118.93 40.2149 117.937 40.5455C116.945 40.7108 115.953 40.8761 114.795 40.8761C111.653 40.8761 109.006 39.8843 107.022 37.7356C105.037 35.5868 104.045 32.9422 104.045 29.4711C104.045 26 105.037 23.3554 106.856 21.2067C108.676 19.0579 111.322 18.0662 114.464 18.0662C117.607 18.0662 120.087 19.0579 121.907 21.0414C123.726 23.0248 124.718 25.8348 124.718 29.3058V30.7934ZM119.591 26.6612C118.93 24.0166 117.276 22.6943 114.63 22.6943C113.968 22.6943 113.472 22.8595 112.976 23.0248C112.48 23.1901 111.983 23.5207 111.487 23.8513C110.991 24.1819 110.66 24.6777 110.33 25.1736C109.999 25.6695 109.833 26.1653 109.668 26.8265L119.591 26.6612Z" fill="#252B48"/>
<path d="M130.341 18.8926H135.303V20.8761C136.957 19.2232 138.942 18.2314 141.092 18.2314C143.572 18.2314 145.557 19.0579 146.88 20.5455C148.038 21.8678 148.699 24.0166 148.699 27.1571V40.3802H143.738V28.3141C143.738 26.1653 143.407 24.6777 142.911 23.8513C142.415 23.0248 141.257 22.6943 139.768 22.6943C138.115 22.6943 136.957 23.1901 136.295 24.3471C135.634 25.3389 135.303 27.3224 135.303 29.967V40.3802H130.341V18.8926Z" fill="#252B48"/>
<path d="M160.276 23.5207V40.3802H155.315V23.5207H153.165V18.8926H155.315V10.9587H160.276V18.8926H164.08V23.5207H160.276Z" fill="#252B48"/>
<path d="M164.577 27.3223H174.334V31.6198H164.577V27.3223Z" fill="#252B48"/>
<path d="M182.769 18.8926V31.2893C182.769 34.9256 184.092 36.5785 186.904 36.5785C189.715 36.5785 191.038 34.7603 191.038 31.2893V18.8926H196V31.2893C196 32.9422 195.835 34.4298 195.338 35.7521C195.008 36.9091 194.181 37.9008 193.188 38.7273C191.535 40.2149 189.385 40.876 186.738 40.876C184.092 40.876 182.108 40.2149 180.288 38.7273C179.296 37.9008 178.469 36.7438 178.138 35.7521C177.807 34.7603 177.477 33.2727 177.477 31.2893V18.8926H182.769Z" fill="#252B48"/>
</g>
<defs>
<clipPath id="clip0">
<rect width="196" height="48" fill="white"/>
</clipPath>
</defs>
</svg>
